<svg width="528" height="66" viewBox="0 0 528 66" fill="none" xmlns="http://www.w3.org/2000/svg">
<path d="M15 0L20 7.5L25 0V40L20 32.5L15 40L15 0Z" fill="#C70000"/>
<path d="M0 25L7.5 20L0 15H40L32.5 20L40 25H0Z" fill="#C70000"/>
<path d="M41.9668 25.4062V28.9219H30.084V51H25.6895V25.4062H41.9668ZM41.3164 41.7012V41.2969C41.3164 39.9258 41.5156 38.6543 41.9141 37.4824C42.3125 36.2988 42.8867 35.2734 43.6367 34.4062C44.3984 33.5273 45.3242 32.8477 46.4141 32.3672C47.5156 31.875 48.7578 31.6289 50.1406 31.6289C51.5352 31.6289 52.7773 31.875 53.8672 32.3672C54.9688 32.8477 55.9004 33.5273 56.6621 34.4062C57.4238 35.2734 58.0039 36.2988 58.4023 37.4824C58.8008 38.6543 59 39.9258 59 41.2969V41.7012C59 43.0723 58.8008 44.3438 58.4023 45.5156C58.0039 46.6875 57.4238 47.7129 56.6621 48.5918C55.9004 49.459 54.9746 50.1387 53.8848 50.6309C52.7949 51.1113 51.5586 51.3516 50.1758 51.3516C48.7812 51.3516 47.5332 51.1113 46.4316 50.6309C45.3418 50.1387 44.416 49.459 43.6543 48.5918C42.8926 47.7129 42.3125 46.6875 41.9141 45.5156C41.5156 44.3438 41.3164 43.0723 41.3164 41.7012ZM45.5527 41.2969V41.7012C45.5527 42.5566 45.6406 43.3652 45.8164 44.127C45.9922 44.8887 46.2676 45.5566 46.6426 46.1309C47.0176 46.7051 47.498 47.1562 48.084 47.4844C48.6699 47.8125 49.3672 47.9766 50.1758 47.9766C50.9609 47.9766 51.6406 47.8125 52.2148 47.4844C52.8008 47.1562 53.2812 46.7051 53.6562 46.1309C54.0312 45.5566 54.3066 44.8887 54.4824 44.127C54.6699 43.3652 54.7637 42.5566 54.7637 41.7012V41.2969C54.7637 40.4531 54.6699 39.6562 54.4824 38.9062C54.3066 38.1445 54.0254 37.4707 53.6387 36.8848C53.2637 36.2988 52.7832 35.8418 52.1973 35.5137C51.623 35.1738 50.9375 35.0039 50.1406 35.0039C49.3438 35.0039 48.6523 35.1738 48.0664 35.5137C47.4922 35.8418 47.0176 36.2988 46.6426 36.8848C46.2676 37.4707 45.9922 38.1445 45.8164 38.9062C45.6406 39.6562 45.5527 40.4531 45.5527 41.2969ZM66.8047 35.6367V58.3125H62.5684V31.9805H66.4707L66.8047 35.6367ZM79.1973 41.3145V41.6836C79.1973 43.0664 79.0332 44.3496 78.7051 45.5332C78.3887 46.7051 77.9141 47.7305 77.2812 48.6094C76.6602 49.4766 75.8926 50.1504 74.9785 50.6309C74.0645 51.1113 73.0098 51.3516 71.8145 51.3516C70.6309 51.3516 69.5938 51.1348 68.7031 50.7012C67.8242 50.2559 67.0801 49.6289 66.4707 48.8203C65.8613 48.0117 65.3691 47.0625 64.9941 45.9727C64.6309 44.8711 64.373 43.6641 64.2207 42.3516V40.9277C64.373 39.5332 64.6309 38.2676 64.9941 37.1309C65.3691 35.9941 65.8613 35.0156 66.4707 34.1953C67.0801 33.375 67.8242 32.7422 68.7031 32.2969C69.582 31.8516 70.6074 31.6289 71.7793 31.6289C72.9746 31.6289 74.0352 31.8633 74.9609 32.332C75.8867 32.7891 76.666 33.4453 77.2988 34.3008C77.9316 35.1445 78.4062 36.1641 78.7227 37.3594C79.0391 38.543 79.1973 39.8613 79.1973 41.3145ZM74.9609 41.6836V41.3145C74.9609 40.4355 74.8789 39.6211 74.7148 38.8711C74.5508 38.1094 74.293 37.4414 73.9414 36.8672C73.5898 36.293 73.1387 35.8477 72.5879 35.5312C72.0488 35.2031 71.3984 35.0391 70.6367 35.0391C69.8867 35.0391 69.2422 35.168 68.7031 35.4258C68.1641 35.6719 67.7129 36.0176 67.3496 36.4629C66.9863 36.9082 66.7051 37.4297 66.5059 38.0273C66.3066 38.6133 66.166 39.252 66.084 39.9434V43.3535C66.2246 44.1973 66.4648 44.9707 66.8047 45.6738C67.1445 46.377 67.625 46.9395 68.2461 47.3613C68.8789 47.7715 69.6875 47.9766 70.6719 47.9766C71.4336 47.9766 72.084 47.8125 72.623 47.4844C73.1621 47.1562 73.6016 46.7051 73.9414 46.1309C74.293 45.5449 74.5508 44.8711 74.7148 44.1094C74.8789 43.3477 74.9609 42.5391 74.9609 41.6836ZM81.9922 41.7012V41.2969C81.9922 39.9258 82.1914 38.6543 82.5898 37.4824C82.9883 36.2988 83.5625 35.2734 84.3125 34.4062C85.0742 33.5273 86 32.8477 87.0898 32.3672C88.1914 31.875 89.4336 31.6289 90.8164 31.6289C92.2109 31.6289 93.4531 31.875 94.543 32.3672C95.6445 32.8477 96.5762 33.5273 97.3379 34.4062C98.0996 35.2734 98.6797 36.2988 99.0781 37.4824C99.4766 38.6543 99.6758 39.9258 99.6758 41.2969V41.7012C99.6758 43.0723 99.4766 44.3438 99.0781 45.5156C98.6797 46.6875 98.0996 47.7129 97.3379 48.5918C96.5762 49.459 95.6504 50.1387 94.5605 50.6309C93.4707 51.1113 92.2344 51.3516 90.8516 51.3516C89.457 51.3516 88.209 51.1113 87.1074 50.6309C86.0176 50.1387 85.0918 49.459 84.3301 48.5918C83.5684 47.7129 82.9883 46.6875 82.5898 45.5156C82.1914 44.3438 81.9922 43.0723 81.9922 41.7012ZM86.2285 41.2969V41.7012C86.2285 42.5566 86.3164 43.3652 86.4922 44.127C86.668 44.8887 86.9434 45.5566 87.3184 46.1309C87.6934 46.7051 88.1738 47.1562 88.7598 47.4844C89.3457 47.8125 90.043 47.9766 90.8516 47.9766C91.6367 47.9766 92.3164 47.8125 92.8906 47.4844C93.4766 47.1562 93.957 46.7051 94.332 46.1309C94.707 45.5566 94.9824 44.8887 95.1582 44.127C95.3457 43.3652 95.4395 42.5566 95.4395 41.7012V41.2969C95.4395 40.4531 95.3457 39.6562 95.1582 38.9062C94.9824 38.1445 94.7012 37.4707 94.3145 36.8848C93.9395 36.2988 93.459 35.8418 92.873 35.5137C92.2988 35.1738 91.6133 35.0039 90.8164 35.0039C90.0195 35.0039 89.3281 35.1738 88.7422 35.5137C88.168 35.8418 87.6934 36.2988 87.3184 36.8848C86.9434 37.4707 86.668 38.1445 86.4922 38.9062C86.3164 39.6562 86.2285 40.4531 86.2285 41.2969ZM105.406 31.9805H109.643L109.432 38.6777C109.373 40.623 109.15 42.293 108.764 43.6875C108.377 45.082 107.873 46.2598 107.252 47.2207C106.631 48.1699 105.928 48.9492 105.143 49.5586C104.369 50.168 103.555 50.6484 102.699 51H101.451V47.6602L102.049 47.625C102.553 47.0859 102.986 46.5469 103.35 46.0078C103.725 45.457 104.041 44.8535 104.299 44.1973C104.557 43.5293 104.756 42.75 104.896 41.8594C105.049 40.9688 105.148 39.9082 105.195 38.6777L105.406 31.9805ZM106.531 31.9805H118.59V51H114.371V35.5664H106.531V31.9805ZM100.484 47.625H121.191V56.6602H116.955V51H104.773V56.6602H100.467L100.484 47.625ZM131.984 47.9766C132.676 47.9766 133.297 47.8418 133.848 47.5723C134.41 47.291 134.861 46.9043 135.201 46.4121C135.553 45.9199 135.746 45.3516 135.781 44.707H139.771C139.748 45.9375 139.385 47.0566 138.682 48.0645C137.979 49.0723 137.047 49.875 135.887 50.4727C134.727 51.0586 133.443 51.3516 132.037 51.3516C130.584 51.3516 129.318 51.1055 128.24 50.6133C127.162 50.1094 126.266 49.418 125.551 48.5391C124.836 47.6602 124.297 46.6465 123.934 45.498C123.582 44.3496 123.406 43.1191 123.406 41.8066V41.1914C123.406 39.8789 123.582 38.6484 123.934 37.5C124.297 36.3398 124.836 35.3203 125.551 34.4414C126.266 33.5625 127.162 32.877 128.24 32.3848C129.318 31.8809 130.578 31.6289 132.02 31.6289C133.543 31.6289 134.879 31.9336 136.027 32.543C137.176 33.1406 138.078 33.9785 138.734 35.0566C139.402 36.123 139.748 37.3652 139.771 38.7832H135.781C135.746 38.0801 135.57 37.4473 135.254 36.8848C134.949 36.3105 134.516 35.8535 133.953 35.5137C133.402 35.1738 132.74 35.0039 131.967 35.0039C131.111 35.0039 130.402 35.1797 129.84 35.5312C129.277 35.8711 128.838 36.3398 128.521 36.9375C128.205 37.5234 127.977 38.1855 127.836 38.9238C127.707 39.6504 127.643 40.4062 127.643 41.1914V41.8066C127.643 42.5918 127.707 43.3535 127.836 44.0918C127.965 44.8301 128.188 45.4922 128.504 46.0781C128.832 46.6523 129.277 47.1152 129.84 47.4668C130.402 47.8066 131.117 47.9766 131.984 47.9766ZM147.594 31.9805V51H143.357V31.9805H147.594ZM160.004 31.9805L151.443 43.4238H146.609L146.047 39.5918H149.58L154.713 31.9805H160.004ZM155.047 51L149.316 42.7031L152.656 40.2949L160.619 51H155.047ZM161.48 41.7012V41.2969C161.48 39.9258 161.68 38.6543 162.078 37.4824C162.477 36.2988 163.051 35.2734 163.801 34.4062C164.562 33.5273 165.488 32.8477 166.578 32.3672C167.68 31.875 168.922 31.6289 170.305 31.6289C171.699 31.6289 172.941 31.875 174.031 32.3672C175.133 32.8477 176.064 33.5273 176.826 34.4062C177.588 35.2734 178.168 36.2988 178.566 37.4824C178.965 38.6543 179.164 39.9258 179.164 41.2969V41.7012C179.164 43.0723 178.965 44.3438 178.566 45.5156C178.168 46.6875 177.588 47.7129 176.826 48.5918C176.064 49.459 175.139 50.1387 174.049 50.6309C172.959 51.1113 171.723 51.3516 170.34 51.3516C168.945 51.3516 167.697 51.1113 166.596 50.6309C165.506 50.1387 164.58 49.459 163.818 48.5918C163.057 47.7129 162.477 46.6875 162.078 45.5156C161.68 44.3438 161.48 43.0723 161.48 41.7012ZM165.717 41.2969V41.7012C165.717 42.5566 165.805 43.3652 165.98 44.127C166.156 44.8887 166.432 45.5566 166.807 46.1309C167.182 46.7051 167.662 47.1562 168.248 47.4844C168.834 47.8125 169.531 47.9766 170.34 47.9766C171.125 47.9766 171.805 47.8125 172.379 47.4844C172.965 47.1562 173.445 46.7051 173.82 46.1309C174.195 45.5566 174.471 44.8887 174.646 44.127C174.834 43.3652 174.928 42.5566 174.928 41.7012V41.2969C174.928 40.4531 174.834 39.6562 174.646 38.9062C174.471 38.1445 174.189 37.4707 173.803 36.8848C173.428 36.2988 172.947 35.8418 172.361 35.5137C171.787 35.1738 171.102 35.0039 170.305 35.0039C169.508 35.0039 168.816 35.1738 168.23 35.5137C167.656 35.8418 167.182 36.2988 166.807 36.8848C166.432 37.4707 166.156 38.1445 165.98 38.9062C165.805 39.6562 165.717 40.4531 165.717 41.2969ZM187.092 44.8125L194.562 31.9805H198.799V51H194.562V38.1504L187.092 51H182.855V31.9805H187.092V44.8125ZM193.438 24.668H196.584C196.584 25.6406 196.35 26.502 195.881 27.252C195.424 27.9902 194.768 28.5703 193.912 28.9922C193.068 29.4141 192.061 29.625 190.889 29.625C189.119 29.625 187.719 29.168 186.688 28.2539C185.668 27.3281 185.158 26.1328 185.158 24.668H188.305C188.305 25.3242 188.498 25.9043 188.885 26.4082C189.283 26.9004 189.951 27.1465 190.889 27.1465C191.814 27.1465 192.471 26.9004 192.857 26.4082C193.244 25.9043 193.438 25.3242 193.438 24.668ZM225.008 31.9805V35.3555H215.621V31.9805H225.008ZM216.623 31.9805V51H212.387V31.9805H216.623ZM228.33 31.9805V51H224.076V31.9805H228.33ZM232.004 41.7012V41.2969C232.004 39.9258 232.203 38.6543 232.602 37.4824C233 36.2988 233.574 35.2734 234.324 34.4062C235.086 33.5273 236.012 32.8477 237.102 32.3672C238.203 31.875 239.445 31.6289 240.828 31.6289C242.223 31.6289 243.465 31.875 244.555 32.3672C245.656 32.8477 246.588 33.5273 247.35 34.4062C248.111 35.2734 248.691 36.2988 249.09 37.4824C249.488 38.6543 249.688 39.9258 249.688 41.2969V41.7012C249.688 43.0723 249.488 44.3438 249.09 45.5156C248.691 46.6875 248.111 47.7129 247.35 48.5918C246.588 49.459 245.662 50.1387 244.572 50.6309C243.482 51.1113 242.246 51.3516 240.863 51.3516C239.469 51.3516 238.221 51.1113 237.119 50.6309C236.029 50.1387 235.104 49.459 234.342 48.5918C233.58 47.7129 233 46.6875 232.602 45.5156C232.203 44.3438 232.004 43.0723 232.004 41.7012ZM236.24 41.2969V41.7012C236.24 42.5566 236.328 43.3652 236.504 44.127C236.68 44.8887 236.955 45.5566 237.33 46.1309C237.705 46.7051 238.186 47.1562 238.771 47.4844C239.357 47.8125 240.055 47.9766 240.863 47.9766C241.648 47.9766 242.328 47.8125 242.902 47.4844C243.488 47.1562 243.969 46.7051 244.344 46.1309C244.719 45.5566 244.994 44.8887 245.17 44.127C245.357 43.3652 245.451 42.5566 245.451 41.7012V41.2969C245.451 40.4531 245.357 39.6562 245.17 38.9062C244.994 38.1445 244.713 37.4707 244.326 36.8848C243.951 36.2988 243.471 35.8418 242.885 35.5137C242.311 35.1738 241.625 35.0039 240.828 35.0039C240.031 35.0039 239.34 35.1738 238.754 35.5137C238.18 35.8418 237.705 36.2988 237.33 36.8848C236.955 37.4707 236.68 38.1445 236.504 38.9062C236.328 39.6562 236.24 40.4531 236.24 41.2969ZM257.492 35.6367V58.3125H253.256V31.9805H257.158L257.492 35.6367ZM269.885 41.3145V41.6836C269.885 43.0664 269.721 44.3496 269.393 45.5332C269.076 46.7051 268.602 47.7305 267.969 48.6094C267.348 49.4766 266.58 50.1504 265.666 50.6309C264.752 51.1113 263.697 51.3516 262.502 51.3516C261.318 51.3516 260.281 51.1348 259.391 50.7012C258.512 50.2559 257.768 49.6289 257.158 48.8203C256.549 48.0117 256.057 47.0625 255.682 45.9727C255.318 44.8711 255.061 43.6641 254.908 42.3516V40.9277C255.061 39.5332 255.318 38.2676 255.682 37.1309C256.057 35.9941 256.549 35.0156 257.158 34.1953C257.768 33.375 258.512 32.7422 259.391 32.2969C260.27 31.8516 261.295 31.6289 262.467 31.6289C263.662 31.6289 264.723 31.8633 265.648 32.332C266.574 32.7891 267.354 33.4453 267.986 34.3008C268.619 35.1445 269.094 36.1641 269.41 37.3594C269.727 38.543 269.885 39.8613 269.885 41.3145ZM265.648 41.6836V41.3145C265.648 40.4355 265.566 39.6211 265.402 38.8711C265.238 38.1094 264.98 37.4414 264.629 36.8672C264.277 36.293 263.826 35.8477 263.275 35.5312C262.736 35.2031 262.086 35.0391 261.324 35.0391C260.574 35.0391 259.93 35.168 259.391 35.4258C258.852 35.6719 258.4 36.0176 258.037 36.4629C257.674 36.9082 257.393 37.4297 257.193 38.0273C256.994 38.6133 256.854 39.252 256.771 39.9434V43.3535C256.912 44.1973 257.152 44.9707 257.492 45.6738C257.832 46.377 258.312 46.9395 258.934 47.3613C259.566 47.7715 260.375 47.9766 261.359 47.9766C262.121 47.9766 262.771 47.8125 263.311 47.4844C263.85 47.1562 264.289 46.7051 264.629 46.1309C264.98 45.5449 265.238 44.8711 265.402 44.1094C265.566 43.3477 265.648 42.5391 265.648 41.6836ZM281.152 31.9805V51H276.898V31.9805H281.152ZM287.393 31.9805V35.3203H270.764V31.9805H287.393ZM300.664 47.1855V38.1152C300.664 37.4355 300.541 36.8496 300.295 36.3574C300.049 35.8652 299.674 35.4844 299.17 35.2148C298.678 34.9453 298.057 34.8105 297.307 34.8105C296.615 34.8105 296.018 34.9277 295.514 35.1621C295.01 35.3965 294.617 35.7129 294.336 36.1113C294.055 36.5098 293.914 36.9609 293.914 37.4648H289.695C289.695 36.7148 289.877 35.9883 290.24 35.2852C290.604 34.582 291.131 33.9551 291.822 33.4043C292.514 32.8535 293.34 32.4199 294.301 32.1035C295.262 31.7871 296.34 31.6289 297.535 31.6289C298.965 31.6289 300.23 31.8691 301.332 32.3496C302.445 32.8301 303.318 33.5566 303.951 34.5293C304.596 35.4902 304.918 36.6973 304.918 38.1504V46.6055C304.918 47.4727 304.977 48.252 305.094 48.9434C305.223 49.623 305.404 50.2148 305.639 50.7188V51H301.297C301.098 50.543 300.939 49.9629 300.822 49.2598C300.717 48.5449 300.664 47.8535 300.664 47.1855ZM301.279 39.4336L301.314 42.0527H298.273C297.488 42.0527 296.797 42.1289 296.199 42.2812C295.602 42.4219 295.104 42.6328 294.705 42.9141C294.307 43.1953 294.008 43.5352 293.809 43.9336C293.609 44.332 293.51 44.7832 293.51 45.2871C293.51 45.791 293.627 46.2539 293.861 46.6758C294.096 47.0859 294.436 47.4082 294.881 47.6426C295.338 47.877 295.889 47.9941 296.533 47.9941C297.4 47.9941 298.156 47.8184 298.801 47.4668C299.457 47.1035 299.973 46.6641 300.348 46.1484C300.723 45.6211 300.922 45.123 300.945 44.6543L302.316 46.5352C302.176 47.0156 301.936 47.5312 301.596 48.082C301.256 48.6328 300.811 49.1602 300.26 49.6641C299.721 50.1562 299.07 50.5605 298.309 50.877C297.559 51.1934 296.691 51.3516 295.707 51.3516C294.465 51.3516 293.357 51.1055 292.385 50.6133C291.412 50.1094 290.65 49.4355 290.1 48.5918C289.549 47.7363 289.273 46.7695 289.273 45.6914C289.273 44.6836 289.461 43.793 289.836 43.0195C290.223 42.2344 290.785 41.5781 291.523 41.0508C292.273 40.5234 293.188 40.125 294.266 39.8555C295.344 39.5742 296.574 39.4336 297.957 39.4336H301.279ZM322.127 31.9805V35.3555H312.846V31.9805H322.127ZM325.449 31.9805V51H321.213V31.9805H325.449ZM311.809 31.9805H315.992L315.482 41.3848C315.412 42.7793 315.271 44.0098 315.061 45.0762C314.861 46.1309 314.592 47.0391 314.252 47.8008C313.912 48.5508 313.496 49.1602 313.004 49.6289C312.512 50.0977 311.938 50.4434 311.281 50.666C310.625 50.8887 309.887 51 309.066 51H307.748L307.73 47.5195L308.398 47.4668C308.832 47.4316 309.207 47.3203 309.523 47.1328C309.84 46.9336 310.109 46.6523 310.332 46.2891C310.566 45.9258 310.754 45.457 310.895 44.8828C311.047 44.3086 311.164 43.6289 311.246 42.8438C311.34 42.0586 311.41 41.1445 311.457 40.1016L311.809 31.9805Z" fill="black"/>
<line x1="337.5" y1="12" x2="337.5" y2="66" stroke="black" stroke-width="3"/>
<path d="M357.281 26.5742H359.531C359.414 27.6523 359.105 28.6172 358.605 29.4688C358.105 30.3203 357.398 30.9961 356.484 31.4961C355.57 31.9883 354.43 32.2344 353.062 32.2344C352.062 32.2344 351.152 32.0469 350.332 31.6719C349.52 31.2969 348.82 30.7656 348.234 30.0781C347.648 29.3828 347.195 28.5508 346.875 27.582C346.562 26.6055 346.406 25.5195 346.406 24.3242V22.625C346.406 21.4297 346.562 20.3477 346.875 19.3789C347.195 18.4023 347.652 17.5664 348.246 16.8711C348.848 16.1758 349.57 15.6406 350.414 15.2656C351.258 14.8906 352.207 14.7031 353.262 14.7031C354.551 14.7031 355.641 14.9453 356.531 15.4297C357.422 15.9141 358.113 16.5859 358.605 17.4453C359.105 18.2969 359.414 19.2852 359.531 20.4102H357.281C357.172 19.6133 356.969 18.9297 356.672 18.3594C356.375 17.7812 355.953 17.3359 355.406 17.0234C354.859 16.7109 354.145 16.5547 353.262 16.5547C352.504 16.5547 351.836 16.6992 351.258 16.9883C350.688 17.2773 350.207 17.6875 349.816 18.2188C349.434 18.75 349.145 19.3867 348.949 20.1289C348.754 20.8711 348.656 21.6953 348.656 22.6016V24.3242C348.656 25.1602 348.742 25.9453 348.914 26.6797C349.094 27.4141 349.363 28.0586 349.723 28.6133C350.082 29.168 350.539 29.6055 351.094 29.9258C351.648 30.2383 352.305 30.3945 353.062 30.3945C354.023 30.3945 354.789 30.2422 355.359 29.9375C355.93 29.6328 356.359 29.1953 356.648 28.625C356.945 28.0547 357.156 27.3711 357.281 26.5742ZM364.57 19.3203H366.738L366.551 24.0664C366.504 25.2695 366.367 26.3086 366.141 27.1836C365.914 28.0586 365.625 28.8047 365.273 29.4219C364.922 30.0312 364.527 30.543 364.09 30.957C363.66 31.3711 363.215 31.7188 362.754 32H361.676L361.734 30.2305L362.18 30.2188C362.438 29.9141 362.688 29.6016 362.93 29.2812C363.172 28.9531 363.395 28.5664 363.598 28.1211C363.801 27.668 363.969 27.1172 364.102 26.4688C364.242 25.8125 364.332 25.0117 364.371 24.0664L364.57 19.3203ZM365.109 19.3203H372.738V32H370.57V21.3242H365.109V19.3203ZM361.184 30.2188H374.367V35.7383H372.199V32H363.352V35.7383H361.172L361.184 30.2188ZM382.031 32.2344C381.148 32.2344 380.348 32.0859 379.629 31.7891C378.918 31.4844 378.305 31.0586 377.789 30.5117C377.281 29.9648 376.891 29.3164 376.617 28.5664C376.344 27.8164 376.207 26.9961 376.207 26.1055V25.6133C376.207 24.582 376.359 23.6641 376.664 22.8594C376.969 22.0469 377.383 21.3594 377.906 20.7969C378.43 20.2344 379.023 19.8086 379.688 19.5195C380.352 19.2305 381.039 19.0859 381.75 19.0859C382.656 19.0859 383.438 19.2422 384.094 19.5547C384.758 19.8672 385.301 20.3047 385.723 20.8672C386.145 21.4219 386.457 22.0781 386.66 22.8359C386.863 23.5859 386.965 24.4062 386.965 25.2969V26.2695H377.496V24.5H384.797V24.3359C384.766 23.7734 384.648 23.2266 384.445 22.6953C384.25 22.1641 383.938 21.7266 383.508 21.3828C383.078 21.0391 382.492 20.8672 381.75 20.8672C381.258 20.8672 380.805 20.9727 380.391 21.1836C379.977 21.3867 379.621 21.6914 379.324 22.0977C379.027 22.5039 378.797 23 378.633 23.5859C378.469 24.1719 378.387 24.8477 378.387 25.6133V26.1055C378.387 26.707 378.469 27.2734 378.633 27.8047C378.805 28.3281 379.051 28.7891 379.371 29.1875C379.699 29.5859 380.094 29.8984 380.555 30.125C381.023 30.3516 381.555 30.4648 382.148 30.4648C382.914 30.4648 383.562 30.3086 384.094 29.9961C384.625 29.6836 385.09 29.2656 385.488 28.7422L386.801 29.7852C386.527 30.1992 386.18 30.5938 385.758 30.9688C385.336 31.3438 384.816 31.6484 384.199 31.8828C383.59 32.1172 382.867 32.2344 382.031 32.2344ZM397.969 19.3203V21.1133H391.84V19.3203H397.969ZM399.879 19.3203V32H397.711V19.3203H399.879ZM391.312 19.3203H393.492L393.164 25.4375C393.109 26.3828 393.02 27.2188 392.895 27.9453C392.777 28.6641 392.613 29.2812 392.402 29.7969C392.199 30.3125 391.941 30.7344 391.629 31.0625C391.324 31.3828 390.957 31.6211 390.527 31.7773C390.098 31.9258 389.602 32 389.039 32H388.359V30.0898L388.828 30.0547C389.164 30.0312 389.449 29.9531 389.684 29.8203C389.926 29.6875 390.129 29.4922 390.293 29.2344C390.457 28.9688 390.59 28.6289 390.691 28.2148C390.801 27.8008 390.883 27.3086 390.938 26.7383C391 26.168 391.047 25.5039 391.078 24.7461L391.312 19.3203ZM410.848 29.832V23.3047C410.848 22.8047 410.746 22.3711 410.543 22.0039C410.348 21.6289 410.051 21.3398 409.652 21.1367C409.254 20.9336 408.762 20.832 408.176 20.832C407.629 20.832 407.148 20.9258 406.734 21.1133C406.328 21.3008 406.008 21.5469 405.773 21.8516C405.547 22.1562 405.434 22.4844 405.434 22.8359H403.266C403.266 22.3828 403.383 21.9336 403.617 21.4883C403.852 21.043 404.188 20.6406 404.625 20.2812C405.07 19.9141 405.602 19.625 406.219 19.4141C406.844 19.1953 407.539 19.0859 408.305 19.0859C409.227 19.0859 410.039 19.2422 410.742 19.5547C411.453 19.8672 412.008 20.3398 412.406 20.9727C412.812 21.5977 413.016 22.3828 413.016 23.3281V29.2344C413.016 29.6562 413.051 30.1055 413.121 30.582C413.199 31.0586 413.312 31.4688 413.461 31.8125V32H411.199C411.09 31.75 411.004 31.418 410.941 31.0039C410.879 30.582 410.848 30.1914 410.848 29.832ZM411.223 24.3125L411.246 25.8359H409.055C408.438 25.8359 407.887 25.8867 407.402 25.9883C406.918 26.082 406.512 26.2266 406.184 26.4219C405.855 26.6172 405.605 26.8633 405.434 27.1602C405.262 27.4492 405.176 27.7891 405.176 28.1797C405.176 28.5781 405.266 28.9414 405.445 29.2695C405.625 29.5977 405.895 29.8594 406.254 30.0547C406.621 30.2422 407.07 30.3359 407.602 30.3359C408.266 30.3359 408.852 30.1953 409.359 29.9141C409.867 29.6328 410.27 29.2891 410.566 28.8828C410.871 28.4766 411.035 28.082 411.059 27.6992L411.984 28.7422C411.93 29.0703 411.781 29.4336 411.539 29.832C411.297 30.2305 410.973 30.6133 410.566 30.9805C410.168 31.3398 409.691 31.6406 409.137 31.8828C408.59 32.1172 407.973 32.2344 407.285 32.2344C406.426 32.2344 405.672 32.0664 405.023 31.7305C404.383 31.3945 403.883 30.9453 403.523 30.3828C403.172 29.8125 402.996 29.1758 402.996 28.4727C402.996 27.793 403.129 27.1953 403.395 26.6797C403.66 26.1562 404.043 25.7227 404.543 25.3789C405.043 25.0273 405.645 24.7617 406.348 24.582C407.051 24.4023 407.836 24.3125 408.703 24.3125H411.223ZM421.688 32.2344C420.805 32.2344 420.004 32.0859 419.285 31.7891C418.574 31.4844 417.961 31.0586 417.445 30.5117C416.938 29.9648 416.547 29.3164 416.273 28.5664C416 27.8164 415.863 26.9961 415.863 26.1055V25.6133C415.863 24.582 416.016 23.6641 416.32 22.8594C416.625 22.0469 417.039 21.3594 417.562 20.7969C418.086 20.2344 418.68 19.8086 419.344 19.5195C420.008 19.2305 420.695 19.0859 421.406 19.0859C422.312 19.0859 423.094 19.2422 423.75 19.5547C424.414 19.8672 424.957 20.3047 425.379 20.8672C425.801 21.4219 426.113 22.0781 426.316 22.8359C426.52 23.5859 426.621 24.4062 426.621 25.2969V26.2695H417.152V24.5H424.453V24.3359C424.422 23.7734 424.305 23.2266 424.102 22.6953C423.906 22.1641 423.594 21.7266 423.164 21.3828C422.734 21.0391 422.148 20.8672 421.406 20.8672C420.914 20.8672 420.461 20.9727 420.047 21.1836C419.633 21.3867 419.277 21.6914 418.98 22.0977C418.684 22.5039 418.453 23 418.289 23.5859C418.125 24.1719 418.043 24.8477 418.043 25.6133V26.1055C418.043 26.707 418.125 27.2734 418.289 27.8047C418.461 28.3281 418.707 28.7891 419.027 29.1875C419.355 29.5859 419.75 29.8984 420.211 30.125C420.68 30.3516 421.211 30.4648 421.805 30.4648C422.57 30.4648 423.219 30.3086 423.75 29.9961C424.281 29.6836 424.746 29.2656 425.145 28.7422L426.457 29.7852C426.184 30.1992 425.836 30.5938 425.414 30.9688C424.992 31.3438 424.473 31.6484 423.855 31.8828C423.246 32.1172 422.523 32.2344 421.688 32.2344ZM436.441 29.1172L440.754 19.3203H442.84L437.191 32H435.691L430.066 19.3203H432.152L436.441 29.1172ZM431.52 19.3203V32H429.352V19.3203H431.52ZM441.293 32V19.3203H443.473V32H441.293ZM461.391 19.3203V21.1133H455.262V19.3203H461.391ZM463.301 19.3203V32H461.133V19.3203H463.301ZM454.734 19.3203H456.914L456.586 25.4375C456.531 26.3828 456.441 27.2188 456.316 27.9453C456.199 28.6641 456.035 29.2812 455.824 29.7969C455.621 30.3125 455.363 30.7344 455.051 31.0625C454.746 31.3828 454.379 31.6211 453.949 31.7773C453.52 31.9258 453.023 32 452.461 32H451.781V30.0898L452.25 30.0547C452.586 30.0312 452.871 29.9531 453.105 29.8203C453.348 29.6875 453.551 29.4922 453.715 29.2344C453.879 28.9688 454.012 28.6289 454.113 28.2148C454.223 27.8008 454.305 27.3086 454.359 26.7383C454.422 26.168 454.469 25.5039 454.5 24.7461L454.734 19.3203ZM470.355 30.6875L473.883 19.3203H476.203L471.117 33.957C471 34.2695 470.844 34.6055 470.648 34.9648C470.461 35.332 470.219 35.6797 469.922 36.0078C469.625 36.3359 469.266 36.6016 468.844 36.8047C468.43 37.0156 467.934 37.1211 467.355 37.1211C467.184 37.1211 466.965 37.0977 466.699 37.0508C466.434 37.0039 466.246 36.9648 466.137 36.9336L466.125 35.1758C466.188 35.1836 466.285 35.1914 466.418 35.1992C466.559 35.2148 466.656 35.2227 466.711 35.2227C467.203 35.2227 467.621 35.1562 467.965 35.0234C468.309 34.8984 468.598 34.6836 468.832 34.3789C469.074 34.082 469.281 33.6719 469.453 33.1484L470.355 30.6875ZM467.766 19.3203L471.059 29.1641L471.621 31.4492L470.062 32.2461L465.398 19.3203H467.766ZM487.723 19.3203V32H485.555V19.3203H487.723ZM486.984 25.1445V26.9258C486.547 27.0898 486.102 27.2383 485.648 27.3711C485.203 27.4961 484.73 27.5977 484.23 27.6758C483.738 27.7461 483.203 27.7812 482.625 27.7812C481.625 27.7812 480.758 27.6094 480.023 27.2656C479.289 26.9141 478.723 26.3867 478.324 25.6836C477.926 24.9727 477.727 24.0781 477.727 23V19.2969H479.895V23C479.895 23.7031 480 24.2734 480.211 24.7109C480.422 25.1484 480.73 25.4727 481.137 25.6836C481.543 25.8867 482.039 25.9883 482.625 25.9883C483.188 25.9883 483.715 25.9531 484.207 25.8828C484.707 25.8047 485.184 25.7031 485.637 25.5781C486.098 25.4531 486.547 25.3086 486.984 25.1445ZM491.402 19.3203H493.57V30.2188H498.211V19.3203H500.391V30.2188H505.02V19.3203H507.188V32H491.402V19.3203ZM515.906 32.2344C515.023 32.2344 514.223 32.0859 513.504 31.7891C512.793 31.4844 512.18 31.0586 511.664 30.5117C511.156 29.9648 510.766 29.3164 510.492 28.5664C510.219 27.8164 510.082 26.9961 510.082 26.1055V25.6133C510.082 24.582 510.234 23.6641 510.539 22.8594C510.844 22.0469 511.258 21.3594 511.781 20.7969C512.305 20.2344 512.898 19.8086 513.562 19.5195C514.227 19.2305 514.914 19.0859 515.625 19.0859C516.531 19.0859 517.312 19.2422 517.969 19.5547C518.633 19.8672 519.176 20.3047 519.598 20.8672C520.02 21.4219 520.332 22.0781 520.535 22.8359C520.738 23.5859 520.84 24.4062 520.84 25.2969V26.2695H511.371V24.5H518.672V24.3359C518.641 23.7734 518.523 23.2266 518.32 22.6953C518.125 22.1641 517.812 21.7266 517.383 21.3828C516.953 21.0391 516.367 20.8672 515.625 20.8672C515.133 20.8672 514.68 20.9727 514.266 21.1836C513.852 21.3867 513.496 21.6914 513.199 22.0977C512.902 22.5039 512.672 23 512.508 23.5859C512.344 24.1719 512.262 24.8477 512.262 25.6133V26.1055C512.262 26.707 512.344 27.2734 512.508 27.8047C512.68 28.3281 512.926 28.7891 513.246 29.1875C513.574 29.5859 513.969 29.8984 514.43 30.125C514.898 30.3516 515.43 30.4648 516.023 30.4648C516.789 30.4648 517.438 30.3086 517.969 29.9961C518.5 29.6836 518.965 29.2656 519.363 28.7422L520.676 29.7852C520.402 30.1992 520.055 30.5938 519.633 30.9688C519.211 31.3438 518.691 31.6484 518.074 31.8828C517.465 32.1172 516.742 32.2344 515.906 32.2344ZM352.605 54.4219H348.445L348.422 52.6875H351.82C352.492 52.6875 353.051 52.6211 353.496 52.4883C353.949 52.3555 354.289 52.1562 354.516 51.8906C354.742 51.625 354.855 51.2969 354.855 50.9062C354.855 50.6016 354.789 50.3359 354.656 50.1094C354.531 49.875 354.34 49.6836 354.082 49.5352C353.824 49.3789 353.504 49.2656 353.121 49.1953C352.746 49.1172 352.305 49.0781 351.797 49.0781H349.02V60H346.852V47.3203H351.797C352.602 47.3203 353.324 47.3906 353.965 47.5312C354.613 47.6719 355.164 47.8867 355.617 48.1758C356.078 48.457 356.43 48.8164 356.672 49.2539C356.914 49.6914 357.035 50.207 357.035 50.8008C357.035 51.1836 356.957 51.5469 356.801 51.8906C356.645 52.2344 356.414 52.5391 356.109 52.8047C355.805 53.0703 355.43 53.2891 354.984 53.4609C354.539 53.625 354.027 53.7305 353.449 53.7773L352.605 54.4219ZM352.605 60H347.66L348.738 58.2422H352.605C353.207 58.2422 353.707 58.168 354.105 58.0195C354.504 57.8633 354.801 57.6445 354.996 57.3633C355.199 57.0742 355.301 56.7305 355.301 56.332C355.301 55.9336 355.199 55.5938 354.996 55.3125C354.801 55.0234 354.504 54.8047 354.105 54.6562C353.707 54.5 353.207 54.4219 352.605 54.4219H349.312L349.336 52.6875H353.449L354.234 53.3438C354.93 53.3984 355.52 53.5703 356.004 53.8594C356.488 54.1484 356.855 54.5156 357.105 54.9609C357.355 55.3984 357.48 55.875 357.48 56.3906C357.48 56.9844 357.367 57.5078 357.141 57.9609C356.922 58.4141 356.602 58.793 356.18 59.0977C355.758 59.3945 355.246 59.6211 354.645 59.7773C354.043 59.9258 353.363 60 352.605 60ZM367.676 57.1172L371.988 47.3203H374.074L368.426 60H366.926L361.301 47.3203H363.387L367.676 57.1172ZM362.754 47.3203V60H360.586V47.3203H362.754ZM372.527 60V47.3203H374.707V60H372.527ZM383.461 60.2344C382.578 60.2344 381.777 60.0859 381.059 59.7891C380.348 59.4844 379.734 59.0586 379.219 58.5117C378.711 57.9648 378.32 57.3164 378.047 56.5664C377.773 55.8164 377.637 54.9961 377.637 54.1055V53.6133C377.637 52.582 377.789 51.6641 378.094 50.8594C378.398 50.0469 378.812 49.3594 379.336 48.7969C379.859 48.2344 380.453 47.8086 381.117 47.5195C381.781 47.2305 382.469 47.0859 383.18 47.0859C384.086 47.0859 384.867 47.2422 385.523 47.5547C386.188 47.8672 386.73 48.3047 387.152 48.8672C387.574 49.4219 387.887 50.0781 388.09 50.8359C388.293 51.5859 388.395 52.4062 388.395 53.2969V54.2695H378.926V52.5H386.227V52.3359C386.195 51.7734 386.078 51.2266 385.875 50.6953C385.68 50.1641 385.367 49.7266 384.938 49.3828C384.508 49.0391 383.922 48.8672 383.18 48.8672C382.688 48.8672 382.234 48.9727 381.82 49.1836C381.406 49.3867 381.051 49.6914 380.754 50.0977C380.457 50.5039 380.227 51 380.062 51.5859C379.898 52.1719 379.816 52.8477 379.816 53.6133V54.1055C379.816 54.707 379.898 55.2734 380.062 55.8047C380.234 56.3281 380.48 56.7891 380.801 57.1875C381.129 57.5859 381.523 57.8984 381.984 58.125C382.453 58.3516 382.984 58.4648 383.578 58.4648C384.344 58.4648 384.992 58.3086 385.523 57.9961C386.055 57.6836 386.52 57.2656 386.918 56.7422L388.23 57.7852C387.957 58.1992 387.609 58.5938 387.188 58.9688C386.766 59.3438 386.246 59.6484 385.629 59.8828C385.02 60.1172 384.297 60.2344 383.461 60.2344ZM396 58.4531C396.516 58.4531 396.992 58.3477 397.43 58.1367C397.867 57.9258 398.227 57.6367 398.508 57.2695C398.789 56.8945 398.949 56.4688 398.988 55.9922H401.051C401.012 56.7422 400.758 57.4414 400.289 58.0898C399.828 58.7305 399.223 59.25 398.473 59.6484C397.723 60.0391 396.898 60.2344 396 60.2344C395.047 60.2344 394.215 60.0664 393.504 59.7305C392.801 59.3945 392.215 58.9336 391.746 58.3477C391.285 57.7617 390.938 57.0898 390.703 56.332C390.477 55.5664 390.363 54.7578 390.363 53.9062V53.4141C390.363 52.5625 390.477 51.7578 390.703 51C390.938 50.2344 391.285 49.5586 391.746 48.9727C392.215 48.3867 392.801 47.9258 393.504 47.5898C394.215 47.2539 395.047 47.0859 396 47.0859C396.992 47.0859 397.859 47.2891 398.602 47.6953C399.344 48.0938 399.926 48.6406 400.348 49.3359C400.777 50.0234 401.012 50.8047 401.051 51.6797H398.988C398.949 51.1562 398.801 50.6836 398.543 50.2617C398.293 49.8398 397.949 49.5039 397.512 49.2539C397.082 48.9961 396.578 48.8672 396 48.8672C395.336 48.8672 394.777 49 394.324 49.2656C393.879 49.5234 393.523 49.875 393.258 50.3203C393 50.7578 392.812 51.2461 392.695 51.7852C392.586 52.3164 392.531 52.8594 392.531 53.4141V53.9062C392.531 54.4609 392.586 55.0078 392.695 55.5469C392.805 56.0859 392.988 56.5742 393.246 57.0117C393.512 57.4492 393.867 57.8008 394.312 58.0664C394.766 58.3242 395.328 58.4531 396 58.4531ZM408.656 47.3203V60H406.477V47.3203H408.656ZM412.91 47.3203V49.0781H402.305V47.3203H412.91ZM419.367 60.2344C418.484 60.2344 417.684 60.0859 416.965 59.7891C416.254 59.4844 415.641 59.0586 415.125 58.5117C414.617 57.9648 414.227 57.3164 413.953 56.5664C413.68 55.8164 413.543 54.9961 413.543 54.1055V53.6133C413.543 52.582 413.695 51.6641 414 50.8594C414.305 50.0469 414.719 49.3594 415.242 48.7969C415.766 48.2344 416.359 47.8086 417.023 47.5195C417.688 47.2305 418.375 47.0859 419.086 47.0859C419.992 47.0859 420.773 47.2422 421.43 47.5547C422.094 47.8672 422.637 48.3047 423.059 48.8672C423.48 49.4219 423.793 50.0781 423.996 50.8359C424.199 51.5859 424.301 52.4062 424.301 53.2969V54.2695H414.832V52.5H422.133V52.3359C422.102 51.7734 421.984 51.2266 421.781 50.6953C421.586 50.1641 421.273 49.7266 420.844 49.3828C420.414 49.0391 419.828 48.8672 419.086 48.8672C418.594 48.8672 418.141 48.9727 417.727 49.1836C417.312 49.3867 416.957 49.6914 416.66 50.0977C416.363 50.5039 416.133 51 415.969 51.5859C415.805 52.1719 415.723 52.8477 415.723 53.6133V54.1055C415.723 54.707 415.805 55.2734 415.969 55.8047C416.141 56.3281 416.387 56.7891 416.707 57.1875C417.035 57.5859 417.43 57.8984 417.891 58.125C418.359 58.3516 418.891 58.4648 419.484 58.4648C420.25 58.4648 420.898 58.3086 421.43 57.9961C421.961 57.6836 422.426 57.2656 422.824 56.7422L424.137 57.7852C423.863 58.1992 423.516 58.5938 423.094 58.9688C422.672 59.3438 422.152 59.6484 421.535 59.8828C420.926 60.1172 420.203 60.2344 419.367 60.2344Z" fill="black"/>
<line x1="25.5" y1="26" x2="25.5" y2="51" stroke="white"/>
<line x1="25" y1="25.5" x2="42" y2="25.5" stroke="white"/>
</svg>
